<svg height="512pt" viewBox="0 0 512.00102 512" width="512pt" xmlns="http://www.w3.org/2000/svg"><path d="m50.292969 303.71875-28.558594 28.5625c-15.632813 15.628906-15.632813 40.949219 0 56.566406l101.417969 101.421875c15.621094 15.617188 40.9375 15.617188 56.570312 0l28.558594-28.5625zm0 0" fill="#eafaff"/><path d="m490.269531 123.152344c15.628907 15.621094 15.628907 40.941406 0 56.570312l-157.269531 157.277344-.011719-.011719-157.976562-157.988281 157.269531-157.265625c15.628906-15.628906 40.949219-15.628906 56.566406 0zm0 0" fill="#ff523d"/><path d="m333 337-124.71875 124.707031c-15.621094 15.621094-40.941406 15.621094-56.558594 0l-101.429687-101.425781c-15.621094-15.621094-15.621094-40.941406 0-56.5625l124.71875-124.71875 157.976562 157.988281zm0 0" fill="#96c8ef"/><path d="m238.640625 157.792969c-3.898437 3.910156-3.898437 10.238281 0 14.140625 3.910156 3.90625 10.238281 3.90625 14.148437 0 3.902344-3.902344 3.902344-10.230469 0-14.140625-3.910156-3.902344-10.238281-3.902344-14.148437 0zm0 0"/><path d="m497.339844 116.082031-101.417969-101.417969c-19.535156-19.550781-51.160156-19.550781-70.714844 0-15.351562 15.351563-297.589843 297.589844-310.542969 310.542969-19.542968 19.542969-19.558593 51.167969 0 70.714844l101.417969 101.417969c9.253907 9.253906 21.648438 14.65625 36.320313 14.65625h195.597656c5.519531 0 10-4.476563 10-10 0-5.519532-4.480469-10-10-10h-155.867188c.757813-.753906 304.789063-304.785156 305.207032-305.203125 19.539062-19.542969 19.554687-51.167969 0-70.710938zm-296.128906 338.554688c-11.695313 11.695312-30.722657 11.695312-42.417969 0l-101.429688-101.429688c-5.664062-5.664062-8.785156-13.195312-8.785156-21.207031 0-8.007812 3.121094-15.542969 8.785156-21.207031l117.648438-117.648438 143.847656 143.855469zm-172.410157-72.863281c-11.726562-11.71875-11.730469-30.6875.003907-42.421876l.273437-.273437c1.503906 10.667969 6.390625 20.519531 14.144531 28.273437l101.429688 101.425782c7.949218 7.953125 17.9375 12.65625 28.296875 14.121094l-.296875.296874c-11.699219 11.695313-30.734375 11.699219-42.429688 0zm454.394531-209.121094-150.195312 150.203125-143.847656-143.851563 150.199218-150.199218c11.726563-11.726563 30.695313-11.738282 42.425782 0l101.421875 101.421874c11.730469 11.722657 11.734375 30.6875-.003907 42.425782zm0 0"/><path d="m339.359375 57.082031-72.429687 72.429688c-3.90625 3.90625-3.90625 10.238281 0 14.140625 3.90625 3.90625 10.234374 3.90625 14.140624 0l72.429688-72.429688c3.90625-3.90625 3.90625-10.238281 0-14.140625-3.90625-3.90625-10.234375-3.90625-14.140625 0zm0 0"/><path d="m388 491.996094c-5.523438 0-10 4.480468-10 10 0 5.523437 4.476562 10 10 10h20c5.519531 0 10-4.476563 10-10 0-5.519532-4.480469-10-10-10zm0 0"/><path d="m448 491.996094c-5.523438 0-10 4.480468-10 10 0 5.523437 4.476562 10 10 10h19.996094c5.523437 0 10-4.476563 10-10 0-5.519532-4.476563-10-10-10zm0 0"/></svg>